<svg width="25.874512" height="31.875977" viewBox="0 0 25.8745 31.876" fill="none" xmlns="http://www.w3.org/2000/svg" xmlns:xlink="http://www.w3.org/1999/xlink">
	<desc>
			Created with Pixso.
	</desc>
	<defs>
		<linearGradient x1="1.454796" y1="0.000000" x2="24.731573" y2="31.875542" id="paint_linear_1139_11896_0" gradientUnits="userSpaceOnUse">
			<stop stop-color="#AF42AF"/>
			<stop offset="1.000000" stop-color="#7445D8"/>
		</linearGradient>
	</defs>
	<path id="icon" d="M17.64 2.9L18.06 3.42C18.27 3.69 18.39 3.84 18.48 3.94C18.53 4 18.67 4.04 18.68 4.05C18.81 4.07 18.99 4.08 19.32 4.1L19.98 4.14C21.01 4.21 21.9 4.26 22.58 4.41C23.31 4.57 24.09 4.89 24.51 5.73C24.92 6.56 24.72 7.39 24.43 8.07C24.15 8.72 23.63 9.57 23.08 10.46L22.77 10.96C22.59 11.25 22.45 11.51 22.38 11.64L22.39 11.8C22.42 11.95 22.47 12.13 22.55 12.46L22.73 13.12C23 14.15 23.23 15.05 23.31 15.75C23.39 16.48 23.36 17.35 22.71 18.02C22.05 18.71 21.19 18.75 20.46 18.66C19.77 18.58 18.9 18.34 17.9 18.07L17.27 17.89C16.95 17.8 16.77 17.75 16.64 17.73C16.6 17.72 16.53 17.74 16.48 17.75C16.46 17.75 16.45 17.76 16.45 17.76C16.33 17.82 16.18 17.92 15.9 18.11L15.35 18.48C14.49 19.05 13.74 19.55 13.11 19.84C12.45 20.15 11.61 20.38 10.77 19.93C10.23 19.65 9.91 19.21 9.72 18.73C6.31 20.17 3.52 22.64 2.56 25.48C2.39 25.97 1.91 26.29 1.4 26.24C0.88 26.2 0.46 25.81 0.38 25.3C-1.03 16.47 1.61 11.15 5.39 8.25C5.65 7.66 6.15 7.26 6.64 6.97C7.25 6.61 8.16 6.25 9.12 5.87L9.65 5.65C9.95 5.53 10.12 5.46 10.24 5.4C10.3 5.37 10.39 5.25 10.4 5.24C10.46 5.11 10.52 4.93 10.64 4.61L10.87 3.98C11.24 2.99 11.55 2.13 11.89 1.51C12.24 0.87 12.77 0.17 13.71 0.02C14.65 -0.13 15.37 0.37 15.9 0.87C16.41 1.35 16.98 2.07 17.64 2.9ZM11.67 17.38C11.69 17.21 11.68 17.03 11.62 16.85C11.58 16.41 11.51 15.77 11.47 15.06L11.42 14.34C11.39 13.82 11.36 13.28 11.11 12.78C10.87 12.29 10.35 11.85 9.96 11.53L9.52 11.15C8.63 10.4 8.07 9.92 7.72 9.53C7.55 9.34 7.48 9.21 7.46 9.15C7.49 9.11 7.58 9.03 7.79 8.91C8.22 8.65 8.89 8.38 9.95 7.96L10.6 7.7C11.06 7.52 11.57 7.31 11.96 6.91C12.34 6.51 12.58 5.87 12.75 5.39L12.95 4.84C13.36 3.74 13.62 3.04 13.87 2.58C13.96 2.41 14.07 2.28 14.11 2.23C14.16 2.26 14.22 2.37 14.36 2.5C14.74 2.86 15.2 3.45 15.93 4.36L16.37 4.92C16.69 5.32 17.03 5.76 17.52 6.02C18.01 6.28 18.69 6.32 19.18 6.35L19.75 6.38C20.89 6.46 21.61 6.5 22.11 6.61C22.34 6.66 22.45 6.73 22.49 6.76C22.49 6.82 22.46 6.95 22.36 7.18C22.16 7.66 21.77 8.29 21.16 9.28L20.79 9.88C20.52 10.32 20.23 10.79 20.15 11.33C20.07 11.88 20.25 12.53 20.38 13.03L20.53 13.6C20.83 14.75 21.01 15.48 21.08 16.01C21.1 16.25 21.09 16.38 21.08 16.44C21.03 16.45 20.92 16.45 20.73 16.43C20.23 16.37 19.52 16.18 18.42 15.87L17.75 15.69L17.75 15.69C17.27 15.55 16.73 15.4 16.18 15.49C15.63 15.58 15.06 15.96 14.65 16.24L14.17 16.55C13.22 17.19 12.61 17.59 12.16 17.8C11.98 17.88 11.88 17.92 11.82 17.93C11.79 17.87 11.72 17.61 11.67 17.38ZM5.86 10.81C3.72 12.87 2.08 16.19 2.26 21.47C4.01 19.27 6.57 17.55 9.3 16.47C9.28 16.1 9.25 15.7 9.22 15.28L9.18 14.61C9.16 14.26 9.15 14.07 9.13 13.93C9.12 13.86 9.02 13.7 9.01 13.68C8.91 13.58 8.77 13.46 8.51 13.24L8 12.81C7.2 12.14 6.5 11.55 6.03 11.02C5.97 10.95 5.92 10.88 5.86 10.81ZM21.03 21.85C21.26 21.71 21.51 21.42 21.79 20.98C21.94 20.73 22.06 20.51 22.16 20.31C22.3 20 22.53 19.86 22.87 19.87C23.37 19.89 23.61 20.15 23.59 20.65Q23.57 20.99 23.61 21.41C23.66 21.94 23.75 22.31 23.89 22.54C24.03 22.76 24.32 23.01 24.76 23.29C25.01 23.44 25.23 23.57 25.43 23.66C25.74 23.8 25.88 24.04 25.87 24.37C25.85 24.87 25.59 25.11 25.09 25.09C24.87 25.08 24.61 25.09 24.33 25.11C23.8 25.16 23.43 25.25 23.21 25.39C22.98 25.53 22.73 25.82 22.45 26.26C22.3 26.51 22.17 26.73 22.08 26.93C21.94 27.24 21.7 27.38 21.37 27.37C20.87 27.35 20.63 27.09 20.65 26.59Q20.67 26.26 20.63 25.83C20.58 25.3 20.49 24.93 20.35 24.71C20.21 24.48 19.92 24.23 19.48 23.95C19.23 23.8 19.01 23.68 18.81 23.58C18.5 23.44 18.36 23.21 18.37 22.87C18.39 22.37 18.65 22.13 19.15 22.15C19.37 22.16 19.63 22.15 19.91 22.13C20.44 22.08 20.81 21.99 21.03 21.85ZM14.89 24.75C14.05 24.68 13.44 24.52 13.05 24.29C12.66 24.05 12.25 23.57 11.8 22.85C11.65 22.62 11.51 22.37 11.37 22.11C11.31 21.99 11.26 21.88 11.22 21.81C11.08 21.5 10.85 21.36 10.51 21.37C10.26 21.38 10.07 21.45 9.95 21.58C9.83 21.71 9.78 21.9 9.79 22.15C9.79 22.24 9.8 22.35 9.8 22.49C9.79 22.78 9.78 23.07 9.75 23.34C9.68 24.19 9.52 24.8 9.28 25.19C9.05 25.58 8.57 25.99 7.85 26.44C7.62 26.59 7.37 26.73 7.11 26.87C6.98 26.93 6.88 26.98 6.81 27.02C6.5 27.16 6.36 27.39 6.37 27.73C6.39 28.23 6.65 28.47 7.15 28.45C7.23 28.45 7.35 28.44 7.49 28.44C7.78 28.45 8.06 28.46 8.34 28.49C9.18 28.56 9.8 28.72 10.19 28.96C10.57 29.19 10.99 29.67 11.44 30.39C11.59 30.62 11.73 30.87 11.87 31.13C11.93 31.25 11.98 31.36 12.02 31.43C12.16 31.74 12.39 31.88 12.73 31.87C13.23 31.85 13.47 31.59 13.45 31.09C13.44 31 13.44 30.89 13.44 30.75C13.45 30.46 13.46 30.18 13.48 29.9C13.56 29.05 13.72 28.44 13.96 28.05C14.19 27.66 14.67 27.25 15.39 26.8C15.62 26.65 15.87 26.51 16.13 26.37C16.25 26.31 16.35 26.26 16.43 26.22C16.74 26.08 16.88 25.85 16.87 25.51C16.85 25.01 16.59 24.77 16.09 24.79C16 24.8 15.89 24.8 15.75 24.8C15.46 24.79 15.17 24.78 14.89 24.75ZM21.82 23.13C21.64 23.24 21.44 23.33 21.21 23.4C21.38 23.57 21.52 23.75 21.63 23.92C21.74 24.1 21.83 24.3 21.9 24.53C22.07 24.36 22.25 24.22 22.42 24.11C22.6 24 22.8 23.91 23.03 23.84C22.86 23.67 22.72 23.49 22.61 23.32C22.5 23.14 22.41 22.94 22.34 22.71C22.17 22.88 21.99 23.02 21.82 23.13ZM11.11 24.48C11.49 24.96 11.88 25.32 12.27 25.56C12.66 25.8 13.16 25.98 13.76 26.11C13.28 26.49 12.92 26.88 12.68 27.27C12.44 27.66 12.26 28.16 12.13 28.76C11.75 28.28 11.36 27.92 10.97 27.68C10.58 27.44 10.08 27.26 9.48 27.13C9.96 26.75 10.32 26.36 10.56 25.97C10.8 25.58 10.98 25.08 11.11 24.48Z" fill="url(#paint_linear_1139_11896_0)" fillOpacity="1.000000" fillRule="evenodd"/>
</svg>
