<svg width="32.250000" height="32.250000" viewBox="0 0 32.25 32.25" fill="none" xmlns="http://www.w3.org/2000/svg" xmlns:xlink="http://www.w3.org/1999/xlink">
	<desc>
			Created with Pixso.
	</desc>
	<defs>
		<linearGradient x1="1.813251" y1="-0.000002" x2="30.825293" y2="32.249992" id="paint_linear_1139_12883_0" gradientUnits="userSpaceOnUse">
			<stop stop-color="#AF42AF"/>
			<stop offset="1.000000" stop-color="#7445D8"/>
		</linearGradient>
	</defs>
	<path id="icon" d="M26.62 11.25C23.51 11.25 21 8.73 21 5.62C21 2.51 23.51 0 26.62 0C29.73 0 32.25 2.51 32.25 5.62C32.25 8.73 29.73 11.25 26.62 11.25ZM14.62 27.75C14 27.75 13.5 27.24 13.5 26.62C13.5 26 14 25.5 14.62 25.5L22.32 25.5C24.19 25.5 24.91 23.04 23.32 22.04L7.71 12.1C4.23 9.88 5.8 4.5 9.92 4.5L14.9 4.5L14.57 4.16C14.14 3.73 14.14 3.01 14.57 2.58C15.01 2.14 15.73 2.14 16.17 2.58L18.42 4.83C18.85 5.26 18.85 5.98 18.42 6.41L16.17 8.66C15.73 9.1 15.01 9.1 14.57 8.66C14.14 8.23 14.14 7.51 14.57 7.08L14.9 6.75L9.92 6.75C8.05 6.75 7.33 9.2 8.92 10.2L24.53 20.14C28.01 22.36 26.45 27.75 22.32 27.75L14.62 27.75ZM23.25 5.62C23.25 7.48 24.76 9 26.62 9C28.48 9 30 7.48 30 5.62C30 3.76 28.48 2.25 26.62 2.25C24.76 2.25 23.25 3.76 23.25 5.62ZM5.62 32.25C2.51 32.25 0 29.73 0 26.62C0 23.51 2.51 21 5.62 21C8.73 21 11.25 23.51 11.25 26.62C11.25 29.73 8.73 32.25 5.62 32.25ZM2.25 26.62C2.25 28.48 3.76 30 5.62 30C7.48 30 9 28.48 9 26.62C9 24.76 7.48 23.25 5.62 23.25C3.76 23.25 2.25 24.76 2.25 26.62Z" fill="url(#paint_linear_1139_12883_0)" fillOpacity="1.000000" fillRule="evenodd"/>
</svg>
