<svg width="35.250000" height="30.750000" viewBox="0 0 35.25 30.75" fill="none" xmlns="http://www.w3.org/2000/svg" xmlns:xlink="http://www.w3.org/1999/xlink">
	<desc>
			Created with Pixso.
	</desc>
	<defs>
		<linearGradient x1="1.981927" y1="-0.000002" x2="33.692764" y2="30.749994" id="paint_linear_1139_12871_0" gradientUnits="userSpaceOnUse">
			<stop stop-color="#AF42AF"/>
			<stop offset="1.000000" stop-color="#7445D8"/>
		</linearGradient>
	</defs>
	<path id="Vector 2" d="M17.62 0C13.68 0 10.5 3.19 10.5 7.12C10.5 11.05 13.68 14.25 17.62 14.25C21.56 14.25 24.75 11.05 24.75 7.12C24.75 3.19 21.56 0 17.62 0ZM12.75 7.12C12.75 4.43 14.93 2.25 17.62 2.25C20.31 2.25 22.5 4.43 22.5 7.12C22.5 9.81 20.31 12 17.62 12C14.93 12 12.75 9.81 12.75 7.12ZM8.62 3C9.24 3 9.75 3.5 9.75 4.12C9.75 4.74 9.24 5.25 8.62 5.25C6.56 5.25 5.25 6.6 5.25 7.87C5.25 9.14 6.56 10.5 8.62 10.5C9.24 10.5 9.75 11 9.75 11.62C9.75 12.24 9.24 12.75 8.62 12.75C5.71 12.75 3 10.75 3 7.87C3 4.99 5.71 3 8.62 3ZM26.62 3C26 3 25.5 3.5 25.5 4.12C25.5 4.74 26 5.25 26.62 5.25C28.68 5.25 30 6.6 30 7.87C30 9.14 28.68 10.5 26.62 10.5C26 10.5 25.5 11 25.5 11.62C25.5 12.24 26 12.75 26.62 12.75C29.53 12.75 32.25 10.75 32.25 7.87C32.25 4.99 29.53 3 26.62 3ZM10.63 18.44C12.47 17.22 14.94 16.5 17.62 16.5C20.3 16.5 22.77 17.22 24.61 18.44C26.44 19.66 27.75 21.47 27.75 23.62C27.75 25.77 26.44 27.58 24.61 28.8C22.77 30.02 20.3 30.75 17.62 30.75C14.94 30.75 12.47 30.02 10.63 28.8C8.8 27.58 7.5 25.77 7.5 23.62C7.5 21.47 8.8 19.66 10.63 18.44ZM6.72 18.88C6.59 18.27 5.99 17.89 5.38 18.02C3.94 18.34 2.64 18.91 1.67 19.7C0.71 20.49 0 21.57 0 22.87C0 24.17 0.71 25.25 1.67 26.04C2.64 26.83 3.94 27.4 5.38 27.72C5.99 27.85 6.59 27.47 6.72 26.86C6.85 26.25 6.47 25.65 5.86 25.52C4.67 25.26 3.72 24.81 3.1 24.3C2.47 23.79 2.25 23.29 2.25 22.87C2.25 22.46 2.47 21.95 3.1 21.44C3.72 20.93 4.67 20.48 5.86 20.22C6.47 20.09 6.85 19.49 6.72 18.88ZM28.52 18.88C28.65 18.27 29.25 17.89 29.86 18.02C31.3 18.34 32.6 18.91 33.57 19.7C34.53 20.49 35.25 21.57 35.25 22.87C35.25 24.17 34.53 25.25 33.57 26.04C32.6 26.83 31.3 27.4 29.86 27.72C29.25 27.85 28.65 27.47 28.52 26.86C28.39 26.25 28.77 25.65 29.38 25.52C30.57 25.26 31.52 24.81 32.14 24.3C32.77 23.79 33 23.29 33 22.87C33 22.46 32.77 21.95 32.14 21.44C31.52 20.93 30.57 20.48 29.38 20.22C28.77 20.09 28.39 19.49 28.52 18.88ZM11.88 20.31C10.45 21.27 9.75 22.46 9.75 23.62C9.75 24.78 10.45 25.97 11.88 26.93C13.3 27.87 15.33 28.5 17.62 28.5C19.91 28.5 21.94 27.87 23.36 26.93C24.79 25.97 25.5 24.78 25.5 23.62C25.5 22.46 24.79 21.27 23.36 20.31C21.94 19.37 19.91 18.75 17.62 18.75C15.33 18.75 13.3 19.37 11.88 20.31Z" fill="url(#paint_linear_1139_12871_0)" fillOpacity="1.000000" fillRule="evenodd"/>
</svg>
