<svg width="29.250000" height="32.250000" viewBox="0 0 29.25 32.25" fill="none" xmlns="http://www.w3.org/2000/svg" xmlns:xlink="http://www.w3.org/1999/xlink">
	<desc>
			Created with Pixso.
	</desc>
	<defs>
		<linearGradient x1="1.644579" y1="-0.000002" x2="27.957844" y2="32.250008" id="paint_linear_1139_11914_0" gradientUnits="userSpaceOnUse">
			<stop stop-color="#AF42AF"/>
			<stop offset="1.000000" stop-color="#7445D8"/>
		</linearGradient>
	</defs>
	<path id="Vector" d="M23.32 0.06C23.81 0 24.4 0 25.05 0L25.19 0C25.84 0 26.43 0 26.92 0.06C27.45 0.13 28.01 0.3 28.48 0.76C28.94 1.23 29.11 1.79 29.18 2.32C29.25 2.81 29.25 3.4 29.25 4.05L29.25 23.69C29.25 24.34 29.25 24.93 29.18 25.42C29.11 25.95 28.94 26.51 28.48 26.98C28.01 27.44 27.45 27.61 26.92 27.68C26.43 27.75 25.84 27.75 25.19 27.75L25.05 27.75C24.4 27.75 23.81 27.75 23.32 27.68C22.79 27.61 22.23 27.44 21.76 26.98C21.3 26.51 21.13 25.95 21.06 25.42C20.99 24.93 21 24.34 21 23.69L21 4.05C21 3.4 20.99 2.81 21.06 2.32C21.13 1.79 21.3 1.23 21.76 0.76C22.23 0.3 22.79 0.13 23.32 0.06ZM23.35 2.36L23.36 2.35C23.36 2.35 23.37 2.35 23.37 2.35C23.41 2.33 23.48 2.31 23.62 2.29C23.94 2.25 24.38 2.25 25.12 2.25C25.86 2.25 26.3 2.25 26.62 2.29C26.76 2.31 26.83 2.33 26.87 2.35C26.87 2.35 26.88 2.35 26.88 2.35L26.89 2.36L26.89 2.36C26.89 2.36 26.89 2.37 26.89 2.37C26.91 2.41 26.93 2.48 26.95 2.62C26.99 2.94 27 3.38 27 4.12L27 23.62C27 24.36 26.99 24.8 26.95 25.12C26.93 25.26 26.91 25.33 26.89 25.37C26.89 25.37 26.89 25.38 26.89 25.38L26.89 25.39L26.88 25.39C26.88 25.39 26.87 25.39 26.87 25.39C26.83 25.41 26.76 25.43 26.62 25.45C26.3 25.49 25.86 25.5 25.12 25.5C24.38 25.5 23.94 25.49 23.62 25.45C23.48 25.43 23.41 25.41 23.37 25.39C23.37 25.39 23.37 25.39 23.36 25.39C23.36 25.39 23.36 25.39 23.36 25.39L23.35 25.39L23.35 25.38C23.35 25.38 23.35 25.37 23.35 25.37C23.33 25.33 23.31 25.26 23.29 25.12C23.25 24.8 23.25 24.36 23.25 23.62L23.25 4.12C23.25 3.38 23.25 2.94 23.29 2.62C23.31 2.48 23.33 2.41 23.35 2.37C23.35 2.37 23.35 2.36 23.35 2.36L23.35 2.36ZM14.69 4.5L14.55 4.5C13.9 4.5 13.31 4.5 12.82 4.56C12.29 4.63 11.73 4.8 11.26 5.26C10.8 5.73 10.63 6.29 10.56 6.82C10.49 7.31 10.5 7.9 10.5 8.55L10.5 23.69C10.5 24.34 10.49 24.93 10.56 25.42C10.63 25.95 10.8 26.51 11.26 26.98C11.73 27.44 12.29 27.61 12.82 27.68C13.31 27.75 13.9 27.75 14.55 27.75L14.69 27.75C15.34 27.75 15.93 27.75 16.42 27.68C16.95 27.61 17.51 27.44 17.98 26.98C18.44 26.51 18.61 25.95 18.68 25.42C18.75 24.93 18.75 24.34 18.75 23.69L18.75 8.55C18.75 7.9 18.75 7.31 18.68 6.82C18.61 6.29 18.44 5.73 17.98 5.26C17.51 4.8 16.95 4.63 16.42 4.56C15.93 4.5 15.34 4.5 14.69 4.5ZM12.86 6.85L12.86 6.85L12.85 6.86L12.85 6.86C12.85 6.86 12.85 6.87 12.85 6.87C12.83 6.91 12.81 6.98 12.79 7.12C12.75 7.44 12.75 7.88 12.75 8.62L12.75 23.62C12.75 24.36 12.75 24.8 12.79 25.12C12.81 25.26 12.83 25.33 12.85 25.37C12.85 25.37 12.85 25.38 12.85 25.38L12.86 25.39L12.86 25.39C12.86 25.39 12.87 25.39 12.87 25.39C12.91 25.41 12.98 25.43 13.12 25.45C13.44 25.49 13.88 25.5 14.62 25.5C15.36 25.5 15.8 25.49 16.12 25.45C16.26 25.43 16.33 25.41 16.37 25.39C16.37 25.39 16.37 25.39 16.37 25.39C16.38 25.39 16.38 25.39 16.38 25.39L16.39 25.39L16.39 25.38C16.39 25.38 16.39 25.37 16.39 25.37C16.41 25.33 16.43 25.26 16.45 25.12C16.49 24.8 16.5 24.36 16.5 23.62L16.5 8.62C16.5 7.88 16.49 7.44 16.45 7.12C16.43 6.98 16.41 6.91 16.39 6.87C16.39 6.87 16.39 6.86 16.39 6.86L16.39 6.86L16.38 6.85C16.38 6.85 16.37 6.85 16.37 6.85C16.33 6.83 16.26 6.81 16.12 6.79C15.8 6.75 15.36 6.75 14.62 6.75C13.88 6.75 13.44 6.75 13.12 6.79C12.98 6.81 12.91 6.83 12.87 6.85L12.86 6.85ZM4.05 10.5C3.4 10.5 2.81 10.5 2.32 10.56C1.79 10.63 1.23 10.8 0.76 11.26C0.3 11.73 0.13 12.29 0.06 12.82C-0.01 13.31 0 13.9 0 14.55L0 23.69C0 24.34 -0.01 24.93 0.06 25.42C0.13 25.95 0.3 26.51 0.76 26.98C1.23 27.44 1.79 27.61 2.32 27.68C2.81 27.75 3.4 27.75 4.05 27.75L4.19 27.75C4.84 27.75 5.43 27.75 5.92 27.68C6.45 27.61 7.01 27.44 7.48 26.98C7.94 26.51 8.11 25.95 8.18 25.42C8.25 24.93 8.25 24.34 8.25 23.69L8.25 14.55C8.25 13.9 8.25 13.31 8.18 12.82C8.11 12.29 7.94 11.73 7.48 11.26C7.01 10.8 6.45 10.63 5.92 10.56C5.43 10.5 4.84 10.5 4.19 10.5L4.05 10.5ZM2.36 12.85L2.35 12.86L2.35 12.86C2.35 12.86 2.35 12.87 2.35 12.87C2.33 12.91 2.31 12.98 2.29 13.12C2.25 13.44 2.25 13.88 2.25 14.62L2.25 23.62C2.25 24.36 2.25 24.8 2.29 25.12C2.31 25.26 2.33 25.33 2.35 25.37C2.35 25.37 2.35 25.38 2.35 25.38L2.35 25.38L2.36 25.39C2.36 25.39 2.37 25.39 2.37 25.39C2.41 25.41 2.48 25.43 2.62 25.45C2.94 25.49 3.38 25.5 4.12 25.5C4.86 25.5 5.3 25.49 5.62 25.45C5.76 25.43 5.83 25.41 5.87 25.39C5.87 25.39 5.88 25.39 5.88 25.39L5.89 25.39L5.89 25.38L5.89 25.37L5.89 25.37C5.91 25.33 5.93 25.26 5.95 25.12C5.99 24.8 6 24.36 6 23.62L6 14.62C6 13.88 5.99 13.44 5.95 13.12C5.93 12.98 5.91 12.91 5.89 12.87C5.89 12.87 5.89 12.86 5.89 12.86L5.89 12.86L5.88 12.85C5.88 12.85 5.87 12.85 5.87 12.85C5.83 12.83 5.76 12.81 5.62 12.79C5.3 12.75 4.86 12.75 4.12 12.75C3.38 12.75 2.94 12.75 2.62 12.79C2.48 12.81 2.41 12.83 2.37 12.85C2.37 12.85 2.36 12.85 2.36 12.85ZM0 31.12C0 30.5 0.5 30 1.12 30L28.12 30C28.74 30 29.25 30.5 29.25 31.12C29.25 31.74 28.74 32.25 28.12 32.25L1.12 32.25C0.5 32.25 0 31.74 0 31.12Z" fill="url(#paint_linear_1139_11914_0)" fillOpacity="1.000000" fillRule="evenodd"/>
</svg>
