<svg width="32.250000" height="32.250000" viewBox="0 0 32.25 32.25" fill="none" xmlns="http://www.w3.org/2000/svg" xmlns:xlink="http://www.w3.org/1999/xlink">
	<desc>
			Created with Pixso.
	</desc>
	<defs>
		<linearGradient x1="1.813251" y1="-0.000002" x2="30.825293" y2="32.249992" id="paint_linear_1139_12895_0" gradientUnits="userSpaceOnUse">
			<stop stop-color="#AF42AF"/>
			<stop offset="1.000000" stop-color="#7445D8"/>
		</linearGradient>
	</defs>
	<path id="Vector 1" d="M16.21 0L16.03 0C12.57 0 9.86 0 7.74 0.28C5.57 0.57 3.86 1.18 2.52 2.52C1.18 3.86 0.57 5.57 0.28 7.74C0 9.86 0 12.57 0 16.03L0 16.21C0 19.67 0 22.38 0.28 24.5C0.57 26.67 1.18 28.38 2.52 29.72C3.86 31.06 5.57 31.67 7.74 31.96C9.86 32.25 12.57 32.25 16.03 32.25L16.21 32.25C19.67 32.25 22.38 32.25 24.5 31.96C26.67 31.67 28.38 31.06 29.72 29.72C31.06 28.38 31.67 26.67 31.96 24.5C32.25 22.38 32.25 19.67 32.25 16.21L32.25 16.03C32.25 12.57 32.25 9.86 31.96 7.74C31.67 5.57 31.06 3.86 29.72 2.52C28.38 1.18 26.67 0.57 24.5 0.28C22.38 0 19.67 0 16.21 0ZM4.11 4.11C4.97 3.26 6.12 2.77 8.04 2.51C9.99 2.25 12.55 2.25 16.12 2.25C19.69 2.25 22.25 2.25 24.2 2.51C26.12 2.77 27.27 3.26 28.13 4.11C28.98 4.97 29.47 6.12 29.73 8.04C29.99 9.99 30 12.55 30 16.12C30 19.69 29.99 22.25 29.73 24.2C29.47 26.12 28.98 27.27 28.13 28.13C27.27 28.98 26.12 29.47 24.2 29.73C22.25 29.99 19.69 30 16.12 30C12.55 30 9.99 29.99 8.04 29.73C6.12 29.47 4.97 28.98 4.11 28.13C3.26 27.27 2.77 26.12 2.51 24.2C2.25 22.25 2.25 19.69 2.25 16.12C2.25 12.55 2.25 9.99 2.51 8.04C2.77 6.12 3.26 4.97 4.11 4.11ZM13.93 9.4C14.36 8.95 14.35 8.23 13.9 7.81C13.45 7.38 12.73 7.39 12.31 7.84L8.83 11.49L7.93 10.54C7.51 10.09 6.79 10.08 6.34 10.51C5.89 10.93 5.88 11.65 6.31 12.1L8.02 13.9C8.23 14.12 8.53 14.25 8.83 14.25C9.14 14.25 9.44 14.12 9.65 13.9L13.93 9.4ZM17.62 10.5C17 10.5 16.5 11 16.5 11.62C16.5 12.24 17 12.75 17.62 12.75L25.12 12.75C25.74 12.75 26.25 12.24 26.25 11.62C26.25 11 25.74 10.5 25.12 10.5L17.62 10.5ZM13.93 19.9C14.36 19.45 14.35 18.73 13.9 18.31C13.45 17.88 12.73 17.89 12.31 18.34L8.83 21.99L7.93 21.04C7.51 20.59 6.79 20.58 6.34 21.01C5.89 21.43 5.88 22.15 6.31 22.6L8.02 24.4C8.23 24.62 8.53 24.75 8.83 24.75C9.14 24.75 9.44 24.62 9.65 24.4L13.93 19.9ZM17.62 21C17 21 16.5 21.5 16.5 22.12C16.5 22.74 17 23.25 17.62 23.25L25.12 23.25C25.74 23.25 26.25 22.74 26.25 22.12C26.25 21.5 25.74 21 25.12 21L17.62 21Z" fill="url(#paint_linear_1139_12895_0)" fillOpacity="1.000000" fillRule="evenodd"/>
</svg>
